<svg width="140" height="38" xmlns="http://www.w3.org/2000/svg" xmlns:xlink="http://www.w3.org/1999/xlink"><defs><filter x="-1.1%" y="-22.7%" width="102.2%" height="148.4%" filterUnits="objectBoundingBox" id="a"><feOffset dy="1" in="SourceAlpha" result="shadowOffsetOuter1"/><feGaussianBlur stdDeviation="5" in="shadowOffsetOuter1" result="shadowBlurOuter1"/><feColorMatrix values="0 0 0 0 0 0 0 0 0 0 0 0 0 0 0 0 0 0 0.05 0" in="shadowBlurOuter1" result="shadowMatrixOuter1"/><feOffset dy="4" in="SourceAlpha" result="shadowOffsetOuter2"/><feGaussianBlur stdDeviation="2.5" in="shadowOffsetOuter2" result="shadowBlurOuter2"/><feColorMatrix values="0 0 0 0 0 0 0 0 0 0 0 0 0 0 0 0 0 0 0.08 0" in="shadowBlurOuter2" result="shadowMatrixOuter2"/><feMorphology radius=".5" in="SourceAlpha" result="shadowSpreadOuter3"/><feOffset dy="2" in="shadowSpreadOuter3" result="shadowOffsetOuter3"/><feGaussianBlur stdDeviation="2" in="shadowOffsetOuter3" result="shadowBlurOuter3"/><feColorMatrix values="0 0 0 0 0 0 0 0 0 0 0 0 0 0 0 0 0 0 0.12 0" in="shadowBlurOuter3" result="shadowMatrixOuter3"/><feMerge><feMergeNode in="shadowMatrixOuter1"/><feMergeNode in="shadowMatrixOuter2"/><feMergeNode in="shadowMatrixOuter3"/></feMerge></filter><path id="b" d="M0 0h1440v64H0z"/></defs><g fill="none" fill-rule="evenodd"><g transform="translate(-144 -13)"><use fill="#000" filter="url(#a)" xlink:href="#b"/><use fill="#FFF" xlink:href="#b"/></g><path d="M-24-13h256v62a2 2 0 01-2 2H-22a2 2 0 01-2-2v-62z" fill="#FFF"/><path d="M19.595 19.542l-2.65 13.132h-3.266l2.187-10.485h-4.811l-2.566 12.3c-.09.43-.083.88.06 1.294a2.36 2.36 0 002.233 1.599h8.089c1.594 0 2.085-.79 2.307-1.888l2.968-15.573-4.551-.38z" fill="#FFBC2E"/><path d="M9.381 15.155L7.91 12.939l5.128-.005 1.04-4.786-12.962.047A1.117 1.117 0 00.188 9.93l5.942 8.942c.564.868.945 1.064 1.986 1.064l3.4-.005 4.854-.01 1.041-4.766h-8.03z" fill="#FF454F"/><path d="M38.547 17.747l-1.152-.952L17.992.759l-.383-.3a1.268 1.268 0 00-2.017.725l-.094.428-2.461 11.322h4.86l1.187-5.43 8.87 7.834.005.004 8.278 4.575a.03.03 0 00.014.003h1.515c1.15 0 1.668-1.44.781-2.173" fill="#0062FA"/><path fill="#0062FA" d="M19.517 19.936l.948-4.766h14.218l2.346 4.766z"/><path d="M120.067 16.921c1.606 0 2.761.251 3.464.754.703.502 1.054 1.347 1.054 2.535 0 .552-.109 1.448-.326 2.686l-1.556 8.81c-.185 1.038-.46 1.85-.829 2.436a3.162 3.162 0 01-1.48 1.267c-.62.26-1.507.39-2.662.39h-5.422l-.452-2.56h5.171c.67 0 1.126-.03 1.368-.089.243-.059.435-.147.578-.263.142-.118.276-.306.402-.565.125-.26.246-.74.364-1.444l.175-.979h-3.615c-1.606 0-2.76-.25-3.464-.753-.703-.502-1.054-1.347-1.054-2.535 0-.552.109-1.447.326-2.686l.377-2.083c.284-1.557.631-2.649 1.042-3.276a3.12 3.12 0 011.707-1.293c.727-.234 1.76-.352 3.1-.352h1.732zm-59.442-4.593l-.502 2.786h-4.62l-2.86 16.216h-3.39l2.862-16.216H47.47l.502-2.786h12.652zm9.036 0c1.205 0 2.226.084 3.063.25.837.168 1.514.436 2.033.804.519.368.9.862 1.142 1.481.243.62.364 1.372.364 2.26 0 .953-.109 2.033-.326 3.238l-.552 3.188c-.285 1.623-.624 2.94-1.017 3.953-.393 1.013-.887 1.795-1.48 2.347-.595.552-1.323.937-2.185 1.155-.862.217-1.945.326-3.25.326H59.72l3.339-19.002h6.601zm16.417 4.593c1.021 0 1.816.105 2.385.314.569.21.987.52 1.255.929.268.41.402.933.402 1.569 0 .385-.034.753-.1 1.104l-.352 1.983c-.2 1.122-.544 1.904-1.029 2.348-.486.443-1.247.665-2.284.665h-5.523l-.126.778c-.083.469-.125.837-.125 1.105 0 .418.134.702.402.853.267.15.77.226 1.506.226h5.045l-1.029 2.535h-4.619c-.602 0-1.18-.037-1.732-.113-.552-.075-1.025-.21-1.418-.401a2.205 2.205 0 01-.929-.841c-.226-.368-.339-.87-.339-1.507 0-.468.059-1.054.176-1.757l.979-5.623c.167-.97.422-1.757.766-2.36.342-.602.866-1.053 1.569-1.355.703-.301 1.84-.452 3.413-.452h1.707zm17.12.176l-1.054 2.535h-5.297c-.485 0-.807.068-.966.201-.16.135-.28.444-.364.93l-.2 1.129c-.051.25-.076.443-.076.577 0 .067.025.147.075.239.05.092.276.138.678.138h3.012c1.088 0 1.85.134 2.285.401.434.268.652.753.652 1.456 0 .469-.084 1.163-.25 2.084l-.277 1.581c-.117.67-.264 1.197-.44 1.582-.175.384-.393.665-.652.84-.26.176-.59.31-.992.402-.401.092-1.096.138-2.083.138H91.75l-.451-2.535h5.949c.485 0 .807-.067.966-.2.16-.135.28-.444.364-.93l.226-1.33c.05-.251.076-.443.076-.578a.52.52 0 00-.076-.238c-.05-.092-.276-.138-.677-.138H95.24c-1.088 0-1.85-.134-2.285-.402-.435-.267-.652-.753-.652-1.455 0-.469.083-1.164.25-2.084l.201-1.13c.134-.736.277-1.288.427-1.657.151-.367.343-.665.578-.89.234-.227.568-.394 1.004-.503.435-.108 1.13-.163 2.083-.163h6.351zm6.728 0L107.44 31.33h-3.112l2.485-14.233h3.113zm25.78 0c.987 0 1.782.076 2.384.226.603.15 1.058.406 1.368.766.31.36.465.883.465 1.569 0 .117-.013.347-.038.69-.025.343-.147 1.134-.364 2.372l-1.506 8.61h-3.113l1.532-8.61c.167-.937.25-1.598.25-1.983 0-.418-.109-.699-.326-.841-.218-.142-.627-.213-1.23-.213h-3.665L129.43 31.33h-3.113l2.485-14.233h6.904zm-66.547-1.983h-3.238l-2.334 13.43h3.188c1.104 0 1.978-.088 2.623-.264.644-.175 1.171-.564 1.581-1.167.41-.602.766-1.79 1.067-3.564l.552-3.188c.201-1.155.302-2.067.302-2.737 0-.535-.076-.987-.226-1.355-.151-.368-.46-.653-.929-.854-.469-.2-1.33-.301-2.586-.301zm50.105 4.317h-1.13c-.469 0-.87.047-1.205.139-.335.092-.603.28-.803.565-.201.284-.377.853-.527 1.707l-.377 2.083c-.2 1.121-.301 1.841-.301 2.159 0 .519.154.862.464 1.03.31.167.883.25 1.72.25h3.263l.778-4.493c.201-1.088.301-1.808.301-2.16 0-.518-.154-.86-.464-1.028-.31-.167-.883-.252-1.72-.252zm-33.813 0h-1.782c-.47 0-.833.05-1.092.151-.26.1-.456.289-.59.565-.134.276-.235.59-.301.941l-.402 2.31h4.267c.335 0 .586-.071.754-.214.167-.142.276-.38.326-.715l.276-1.632c.05-.3.075-.518.075-.652 0-.285-.109-.481-.326-.59-.218-.109-.62-.163-1.205-.163zm25.504-7.881l-.578 3.212h-3.213l.578-3.212h3.213z" fill="#000"/></g></svg>
